<?xml version="1.0" encoding="UTF-8" standalone="no"?>
<svg
   xmlns:dc="http://purl.org/dc/elements/1.1/"
   xmlns:cc="http://creativecommons.org/ns#"
   xmlns:rdf="http://www.w3.org/1999/02/22-rdf-syntax-ns#"
   xmlns:svg="http://www.w3.org/2000/svg"
   xmlns="http://www.w3.org/2000/svg"
   xmlns:sodipodi="http://sodipodi.sourceforge.net/DTD/sodipodi-0.dtd"
   xmlns:inkscape="http://www.inkscape.org/namespaces/inkscape"
   inkscape:version="1.0 (4035a4fb49, 2020-05-01)"
   sodipodi:docname="serv-1.svg"
   id="svg30"
   version="1.1"
   viewBox="0 0 43 40"
   height="40"
   width="43">
  <metadata
     id="metadata36">
    <rdf:RDF>
      <cc:Work
         rdf:about="">
        <dc:format>image/svg+xml</dc:format>
        <dc:type
           rdf:resource="http://purl.org/dc/dcmitype/StillImage" />
        <dc:title></dc:title>
      </cc:Work>
    </rdf:RDF>
  </metadata>
  <defs
     id="defs34" />
  <sodipodi:namedview
     inkscape:current-layer="svg30"
     inkscape:window-maximized="1"
     inkscape:window-y="-8"
     inkscape:window-x="-8"
     inkscape:cy="20"
     inkscape:cx="21.5"
     inkscape:zoom="18.375"
     inkscape:pagecheckerboard="true"
     showgrid="false"
     id="namedview32"
     inkscape:window-height="1018"
     inkscape:window-width="1920"
     inkscape:pageshadow="2"
     inkscape:pageopacity="0"
     guidetolerance="10"
     gridtolerance="10"
     objecttolerance="10"
     borderopacity="1"
     bordercolor="#666666"
     pagecolor="#ffffff" />
  <g
     id="g28">
    <g
       id="g26">
      <path
         style="fill:#c0301c;stroke:#c0301c"
         id="path24"
         d="M18.735 11.223C20.57 15 22.146 19.036 23.49 22.994c-.491.026-.982.052-1.473.052-2.559 0-5.117-.077-7.675-.104zM0 40c1.628 0 3.23-.079 4.858-.365.362-.052.879-.208 1.24-.208 2.998 0 6.022.52 9.02.52.025-.234.05-.468.05-.703 0-.52 0-1.015-.025-1.51-1.473-.208-5.272-.287-5.272-2.292 0-.99 2.61-7.812 3.282-9.323l11.629.053c.413 1.067 3.747 8.802 3.747 9.739 0 .964-1.37 1.146-2.067 1.302l-3.386.73a17.824 17.824 0 0 0-.103 2.03c3.385-.104 6.77-.39 10.156-.39 3.281 0 6.563.417 9.845.417 0-.235.026-.443.026-.678 0-.494-.078-.989-.155-1.484-1.215-.469-3.592-.625-4.445-1.302-.362-.286-.723-1.068-.904-1.484-1.292-2.656-2.197-5.443-3.36-8.151-1.964-4.584-3.747-9.245-5.685-13.855L23.154.546C23.076.365 22.973.183 22.87 0h-3.308l-7.236 18.855-6.124 16.041c-1.085 2.813-3.721 2.292-6.15 3.047z"
         fill="#fff" />
    </g>
  </g>
</svg>
